<svg width="68" height="11" viewBox="0 0 68 11" fill="none" xmlns="http://www.w3.org/2000/svg">
<path fill-rule="evenodd" clip-rule="evenodd" d="M25.3896 4.4595L21.295 4.13318L19.6948 0.648972L18.0945 4.13845L14 4.4595L17.1093 6.94897L16.1754 10.649L19.6948 8.68581L23.2142 10.649L22.2859 6.94897L25.3896 4.4595ZM19.6948 7.7016L17.5535 8.89634L18.123 6.64371L16.2324 5.12792L18.7267 4.92792L19.6948 2.80687L20.6686 4.93318L23.1629 5.13318L21.2722 6.64897L21.8417 8.9016L19.6948 7.7016Z" fill="#F8475F"/>
<path fill-rule="evenodd" clip-rule="evenodd" d="M39.3896 4.4595L35.295 4.13318L33.6948 0.648972L32.0945 4.13845L28 4.4595L31.1093 6.94897L30.1754 10.649L33.6948 8.68581L37.2142 10.649L36.2859 6.94897L39.3896 4.4595ZM33.6948 7.70161L31.5535 8.89634L32.123 6.64371L30.2323 5.12792L32.7267 4.92792L33.6948 2.80687L34.6686 4.93319L37.1629 5.13319L35.2722 6.64897L35.8417 8.90161L33.6948 7.70161Z" fill="#F8475F"/>
<path fill-rule="evenodd" clip-rule="evenodd" d="M53.3896 4.4595L49.295 4.13318L47.6948 0.648972L46.0945 4.13845L42 4.4595L45.1093 6.94897L44.1754 10.649L47.6948 8.68581L51.2142 10.649L50.2859 6.94897L53.3896 4.4595ZM47.6948 7.70161L45.5535 8.89634L46.123 6.64371L44.2323 5.12792L46.7267 4.92792L47.6948 2.80687L48.6686 4.93319L51.1629 5.13319L49.2722 6.64897L49.8417 8.90161L47.6948 7.70161Z" fill="#F8475F"/>
<path fill-rule="evenodd" clip-rule="evenodd" d="M67.3896 4.4595L63.295 4.13318L61.6948 0.648972L60.0945 4.13845L56 4.4595L59.1093 6.94897L58.1754 10.649L61.6948 8.68581L65.2142 10.649L64.2859 6.94897L67.3896 4.4595ZM61.6948 7.70161L59.5535 8.89634L60.123 6.64371L58.2323 5.12792L60.7267 4.92792L61.6948 2.80687L62.6686 4.93319L65.1629 5.13319L63.2722 6.64897L63.8417 8.90161L61.6948 7.70161Z" fill="#F8475F"/>
<path fill-rule="evenodd" clip-rule="evenodd" d="M5.69478 8.68583L9.21415 10.649L8.28021 6.94899L11.3896 4.45951L7.29501 4.13846L5.69478 0.648987L4.09454 4.13846L0 4.45951L3.10935 6.94899L2.17541 10.649L5.69478 8.68583Z" fill="#F8475F"/>
</svg>
