<svg width="68" height="11" viewBox="0 0 68 11" fill="none" xmlns="http://www.w3.org/2000/svg">
<path fill-rule="evenodd" clip-rule="evenodd" d="M53.3896 4.4595L49.295 4.13318L47.6948 0.648972L46.0945 4.13845L42 4.4595L45.1093 6.94897L44.1754 10.649L47.6948 8.68581L51.2142 10.649L50.2859 6.94897L53.3896 4.4595ZM47.6948 7.70161L45.5535 8.89634L46.123 6.64371L44.2323 5.12792L46.7267 4.92792L47.6948 2.80687L48.6686 4.93319L51.1629 5.13319L49.2722 6.64897L49.8417 8.90161L47.6948 7.70161Z" fill="#F8475F"/>
<path fill-rule="evenodd" clip-rule="evenodd" d="M67.3896 4.4595L63.295 4.13318L61.6948 0.648972L60.0945 4.13845L56 4.4595L59.1093 6.94897L58.1754 10.649L61.6948 8.68581L65.2142 10.649L64.2859 6.94897L67.3896 4.4595ZM61.6948 7.70161L59.5535 8.89634L60.123 6.64371L58.2323 5.12792L60.7267 4.92792L61.6948 2.80687L62.6686 4.93319L65.1629 5.13319L63.2722 6.64897L63.8417 8.90161L61.6948 7.70161Z" fill="#F8475F"/>
<path fill-rule="evenodd" clip-rule="evenodd" d="M5.69481 8.68583L9.21418 10.649L8.28024 6.94899L11.3896 4.45951L7.29504 4.13846L5.69481 0.648987L4.09458 4.13846L3.05176e-05 4.45951L3.10938 6.94899L2.17544 10.649L5.69481 8.68583Z" fill="#F8475F"/>
<path fill-rule="evenodd" clip-rule="evenodd" d="M33.6948 8.68583L37.2142 10.649L36.2802 6.94899L39.3896 4.45951L35.295 4.13846L33.6948 0.648987L32.0945 4.13846L28 4.45951L31.1093 6.94899L30.1754 10.649L33.6948 8.68583Z" fill="#F8475F"/>
<path fill-rule="evenodd" clip-rule="evenodd" d="M19.6948 8.68583L23.2142 10.649L22.2802 6.94899L25.3896 4.45951L21.295 4.13846L19.6948 0.648987L18.0945 4.13846L14 4.45951L17.1093 6.94899L16.1754 10.649L19.6948 8.68583Z" fill="#F8475F"/>
</svg>
